# xmcd
#
# Track frame offsets:
#	150
#	18332
#	40366
#	57668
#	68817
#	94379
#	109681
#	123142
#	134592
#	144579
#
# Disc length: 2127 seconds
#
# Revision: 0
# Processed by: cddbd v1.5.2PL0 Copyright (c) Steve Scherf et al.
# Submitted via: audiograbber 1.83.01
#
DISCID=93084d0a
DTITLE=Charlie Louvin - Steps to Heaven
DYEAR=2008
DGENRE=Country
TTITLE0=Love at Home
TTITLE1=How beautiful heaven must be
TTITLE2=Precious Lord, take my hand
TTITLE3=There's a higher power
TTITLE4=Where we'll never grow old
TTITLE5=If we never meet again this side of Heaven
TTITLE6=Just Rehaersing
TTITLE7=When the love is called yonder
TTITLE8=I fell like travelling on
TTITLE9=I'm bound for the promised land
EXTD=
EXTT0=
EXTT1=
EXTT2=
EXTT3=
EXTT4=
EXTT5=
EXTT6=
EXTT7=
EXTT8=
EXTT9=
PLAYORDER=
